<svg width="270" height="263" viewBox="0 0 270 263" fill="none" xmlns="http://www.w3.org/2000/svg">
<path d="M124.165 260.167L190.105 251.69L58.7927 248.062L124.165 260.167Z" fill="white"/>
<path d="M125.336 5.39946C125.629 3.76884 127.199 2.62004 128.842 2.83355L229.4 15.9011L192.171 222.635L88.6384 209.181L125.336 5.39946Z" fill="white"/>
<path d="M143.882 0L250.717 17.8636L202.721 225L100.818 207.961C98.0942 207.506 96.3916 204.956 97.015 202.265L143.882 0Z" fill="black"/>
<path d="M105.532 81.0699L128.213 23.4261L105.849 143.015L105.532 81.0699Z" fill="white"/>
<rect y="7.8965" width="105.568" height="56.4413" transform="rotate(-0.902146 0 7.8965)" fill="white"/>
<rect x="5.09424" y="10.5152" width="95.727" height="47.0097" transform="rotate(0.888715 5.09424 10.5152)" fill="black"/>
<rect x="165.495" y="8.75872" width="103.972" height="55.7081" transform="rotate(6.7463 165.495 8.75872)" fill="white"/>
<rect x="170.19" y="14.2169" width="92.9915" height="48.3243" transform="rotate(5.31869 170.19 14.2169)" fill="black"/>
<rect x="103.937" y="30.5851" width="27" height="12" transform="rotate(-10.5973 103.937 30.5851)" fill="white"/>
<rect x="137.203" y="25.2584" width="31.275" height="12" transform="rotate(17.292 137.203 25.2584)" fill="white"/>
<path d="M247.439 48.2521L184.469 45.1496L187.866 27.6163L247.439 48.2521Z" fill="white"/>
<path d="M21.7824 46.7943L85.776 24.1397L89.1928 38.7781L21.7824 46.7943Z" fill="white"/>
</svg>
